# xmcd CD database file
#
# Track frame offsets:
#	151
#	16521
#	60217
#	70591
#	104104
#	118310
#	138832
#	176214
#	196050
#	216955
#	239256
#	253347
#	269400
#	297803
#
# Disc length: 4149 seconds
#
# Revision: 0
# Processed by: cddbd v1.4PL0 Copyright (c) Steve Scherf et al.
# Submitted via: CDex 1.51
#
DISCID=d010330e
DTITLE=FES - The Armstrong Mutations
DYEAR=1900
DGENRE=Jazz
TTITLE0=Spooks!
TTITLE1=St. Louis Blues
TTITLE2=Memphis Bound
TTITLE3=Black and Blue
TTITLE4=Intro's
TTITLE5=Perdido Street Blues
TTITLE6=(Little) King Ink
TTITLE7=Lucky Ol' Sun
TTITLE8=Caravan
TTITLE9=Do You Call That A Buddy
TTITLE10=What a Wonderful world
TTITLE11=I Got Plenty O' Nuttin
TTITLE12=Funeral
TTITLE13=Binche
EXTD=
EXTT0=
EXTT1=
EXTT2=
EXTT3=
EXTT4=
EXTT5=
EXTT6=
EXTT7=
EXTT8=
EXTT9=
EXTT10=
EXTT11=
EXTT12=
EXTT13=
PLAYORDER=
